<?xml version="1.0" encoding="utf-8"?>
<!-- Generator: Adobe Illustrator 16.0.0, SVG Export Plug-In . SVG Version: 6.00 Build 0)  -->
<!DOCTYPE svg PUBLIC "-//W3C//DTD SVG 1.1//EN" "http://www.w3.org/Graphics/SVG/1.1/DTD/svg11.dtd">
<svg version="1.1" id="Layer_1" xmlns="http://www.w3.org/2000/svg" xmlns:xlink="http://www.w3.org/1999/xlink" x="0px" y="0px"
	 width="33.254px" height="26.762px" viewBox="0 0 33.254 26.762" enable-background="new 0 0 33.254 26.762" xml:space="preserve">
<path d="M16.626,0C7.444,0,0,5.991,0,13.382c0,7.39,7.444,13.38,16.626,13.38s16.627-5.99,16.627-13.38
	C33.254,5.991,25.809,0,16.626,0z M16.656,25.453c-8.413,0-15.231-5.405-15.231-12.07c0-6.668,6.819-12.071,15.231-12.071
	c8.411,0,15.23,5.403,15.23,12.071C31.886,20.048,25.067,25.453,16.656,25.453z"/>
<polygon points="4.244,13.495 8.342,20.955 12.471,13.495 8.342,6.034 "/>
<polygon points="12.471,13.495 16.57,20.927 20.698,13.495 16.57,6.007 "/>
<polygon points="24.797,6.034 20.698,13.495 24.797,20.955 28.927,13.495 "/>
</svg>
